<svg width="474" height="90" viewBox="0 0 474 90" fill="none" xmlns="http://www.w3.org/2000/svg">
<path d="M202.389 88.2353L227.599 0H251.548L276.632 88.2353H262.641L256.842 67.437H222.305L216.506 88.2353H202.389ZM225.708 54.8319H253.439L240.582 8.44538H238.565L225.708 54.8319Z" fill="black"/>
<path d="M312.788 89.3698C308.082 89.3698 303.881 88.3193 300.183 86.2185C296.486 84.1176 293.586 81.1345 291.486 77.2689C289.385 73.4034 288.334 68.7815 288.334 63.4034V26.0924H301.318V62.521C301.318 67.8992 302.662 71.8908 305.351 74.4958C308.04 77.0168 311.78 78.2773 316.57 78.2773C321.864 78.2773 326.107 76.5126 329.301 72.9832C332.578 69.3698 334.217 64.2017 334.217 57.479V26.0924H347.2V88.2353H334.469V78.9076H332.452C331.276 81.4286 329.175 83.8235 326.149 86.0924C323.124 88.2773 318.671 89.3698 312.788 89.3698Z" fill="black"/>
<path d="M366.392 88.2353V26.0924H379.123V33.4034H381.14C382.148 30.7983 383.745 28.9076 385.93 27.7311C388.199 26.4706 390.972 25.8403 394.249 25.8403H401.686V37.563H393.745C389.543 37.563 386.098 38.7395 383.409 41.0924C380.72 43.3613 379.375 46.8908 379.375 51.6807V88.2353H366.392Z" fill="black"/>
<path d="M432.701 90C428.247 90 424.255 89.2437 420.726 87.7311C417.28 86.2185 414.507 83.9916 412.406 81.0504C410.39 78.1092 409.381 74.5378 409.381 70.3361C409.381 66.0504 410.39 62.521 412.406 59.7479C414.507 56.8908 417.322 54.7479 420.852 53.3193C424.465 51.8908 428.541 51.1765 433.079 51.1765H451.986V47.1429C451.986 43.5294 450.894 40.6303 448.709 38.4454C446.524 36.2605 443.163 35.1681 438.625 35.1681C434.171 35.1681 430.768 36.2185 428.415 38.3193C426.062 40.4202 424.507 43.1513 423.751 46.5126L411.65 42.605C412.658 39.2437 414.255 36.2185 416.44 33.5294C418.709 30.7563 421.692 28.5294 425.39 26.8487C429.087 25.1681 433.541 24.3277 438.751 24.3277C446.818 24.3277 453.163 26.3866 457.785 30.5042C462.406 34.6219 464.717 40.4622 464.717 48.0252V73.6134C464.717 76.1345 465.894 77.395 468.247 77.395H473.541V88.2353H463.835C460.894 88.2353 458.499 87.479 456.65 85.9664C454.801 84.4538 453.877 82.395 453.877 79.7899V79.4118H451.986C451.314 80.6723 450.306 82.1429 448.961 83.8235C447.617 85.5042 445.642 86.9748 443.037 88.2353C440.432 89.4118 436.986 90 432.701 90ZM434.591 79.2857C439.801 79.2857 444.003 77.8151 447.196 74.874C450.39 71.8487 451.986 67.7311 451.986 62.521V61.2605H433.835C430.39 61.2605 427.616 62.0168 425.516 63.5294C423.415 64.958 422.364 67.1008 422.364 69.958C422.364 72.8151 423.457 75.084 425.642 76.7647C427.827 78.4454 430.81 79.2857 434.591 79.2857Z" fill="black"/>
<mask id="mask0_1109_607" style="mask-type:alpha" maskUnits="userSpaceOnUse" x="0" y="0" width="179" height="90">
<path d="M0 89.2049C2.0683e-06 65.5463 9.39835 42.8567 26.1275 26.1275C42.8567 9.39835 65.5463 2.5382e-06 89.2049 0C112.864 -2.5382e-06 135.553 9.39834 152.282 26.1275C169.011 42.8567 178.41 65.5463 178.41 89.2049L89.2049 89.2049L0 89.2049Z" fill="#C4C4C4"/>
</mask>
<g mask="url(#mask0_1109_607)">
<circle cx="167.337" cy="82.3122" r="66.4968" fill="url(#paint0_linear_1109_607)"/>
<circle cx="40.3578" cy="59.2836" r="61.3934" fill="url(#paint1_linear_1109_607)"/>
<ellipse cx="94.0527" cy="72.721" rx="22.3012" ry="43.6328" fill="url(#paint2_linear_1109_607)"/>
<g filter="url(#filter0_b_1109_607)">
<rect x="-37.2412" y="-62.0691" width="238.966" height="266.897" fill="white" fill-opacity="0.2"/>
</g>
</g>
<defs>
<filter id="filter0_b_1109_607" x="-90.9619" y="-115.79" width="346.407" height="374.338" filterUnits="userSpaceOnUse" color-interpolation-filters="sRGB">
<feFlood flood-opacity="0" result="BackgroundImageFix"/>
<feGaussianBlur in="BackgroundImageFix" stdDeviation="26.8603"/>
<feComposite in2="SourceAlpha" operator="in" result="effect1_backgroundBlur_1109_607"/>
<feBlend mode="normal" in="SourceGraphic" in2="effect1_backgroundBlur_1109_607" result="shape"/>
</filter>
<linearGradient id="paint0_linear_1109_607" x1="167.337" y1="15.8154" x2="167.337" y2="148.809" gradientUnits="userSpaceOnUse">
<stop stop-color="#96DDFB"/>
<stop offset="1" stop-color="#5F82F8"/>
</linearGradient>
<linearGradient id="paint1_linear_1109_607" x1="40.3578" y1="-2.10986" x2="40.3578" y2="120.677" gradientUnits="userSpaceOnUse">
<stop stop-color="#FB5397"/>
<stop offset="1" stop-color="#FDB45F"/>
</linearGradient>
<linearGradient id="paint2_linear_1109_607" x1="94.0527" y1="29.0881" x2="94.0527" y2="116.354" gradientUnits="userSpaceOnUse">
<stop stop-color="#FDB45F"/>
<stop offset="1" stop-color="#FDB45F"/>
</linearGradient>
</defs>
</svg>
