<svg width="414" height="90" viewBox="0 0 414 90" fill="none" xmlns="http://www.w3.org/2000/svg">
<path d="M402.614 89.9998C399.276 89.9998 396.532 89.0356 394.382 87.1073C392.305 85.1049 391.267 82.6574 391.267 79.7649C391.267 76.7983 392.305 74.3138 394.382 72.3113C396.532 70.3088 399.276 69.3076 402.614 69.3076C405.877 69.3076 408.547 70.3088 410.624 72.3113C412.775 74.3138 413.85 76.7983 413.85 79.7649C413.85 82.6574 412.775 85.1049 410.624 87.1073C408.547 89.0356 405.877 89.9998 402.614 89.9998Z" fill="url(#paint0_linear_1121_795)"/>
<path d="M314.426 57.9605C314.426 51.5823 315.613 45.9828 317.986 41.1621C320.434 36.3413 323.734 32.633 327.887 30.0372C332.041 27.4414 336.676 26.1436 341.793 26.1436C346.169 26.1436 349.989 27.0335 353.252 28.8135C356.589 30.5935 359.148 32.9297 360.928 35.8221V27.0335H379.951V89.11H360.928V80.3214C359.074 83.2138 356.478 85.5501 353.141 87.33C349.877 89.11 346.058 90 341.682 90C336.639 90 332.041 88.7021 327.887 86.1063C323.734 83.4363 320.434 79.691 317.986 74.8702C315.613 69.9753 314.426 64.3387 314.426 57.9605ZM360.928 58.0718C360.928 53.3252 359.593 49.5798 356.923 46.8357C354.327 44.0916 351.138 42.7195 347.356 42.7195C343.573 42.7195 340.347 44.0916 337.677 46.8357C335.081 49.5057 333.783 53.2139 333.783 57.9605C333.783 62.7071 335.081 66.4895 337.677 69.3078C340.347 72.0519 343.573 73.424 347.356 73.424C351.138 73.424 354.327 72.0519 356.923 69.3078C359.593 66.5637 360.928 62.8183 360.928 58.0718Z" fill="#161616"/>
<path d="M304.423 6.78516V89.1088H285.399V6.78516H304.423Z" fill="#161616"/>
<path d="M262.157 20.5809C258.819 20.5809 256.075 19.6168 253.925 17.6885C251.848 15.686 250.81 13.2385 250.81 10.3461C250.81 7.37946 251.848 4.932 253.925 3.0037C256.075 1.00123 258.819 0 262.157 0C265.42 0 268.09 1.00123 270.167 3.0037C272.318 4.932 273.393 7.37946 273.393 10.3461C273.393 13.2385 272.318 15.686 270.167 17.6885C268.09 19.6168 265.42 20.5809 262.157 20.5809ZM271.613 27.0333V89.1097H252.59V27.0333H271.613Z" fill="#161616"/>
<path d="M215.452 26.3652C222.72 26.3652 228.505 28.7385 232.807 33.4851C237.182 38.1575 239.37 44.6099 239.37 52.8423V89.1092H220.458V55.401C220.458 51.2477 219.383 48.0215 217.232 45.7224C215.081 43.4233 212.189 42.2737 208.554 42.2737C204.92 42.2737 202.028 43.4233 199.877 45.7224C197.726 48.0215 196.651 51.2477 196.651 55.401V89.1092H177.627V27.0327H196.651V35.2651C198.579 32.521 201.175 30.3702 204.438 28.8127C207.702 27.181 211.373 26.3652 215.452 26.3652Z" fill="#161616"/>
<path d="M98.3398 57.9605C98.3398 51.5823 99.5265 45.9828 101.9 41.1621C104.347 36.3413 107.648 32.633 111.801 30.0372C115.954 27.4414 120.589 26.1436 125.707 26.1436C130.083 26.1436 133.902 27.0335 137.165 28.8135C140.503 30.5935 143.062 32.9297 144.842 35.8221V27.0335H163.865V89.11H144.842V80.3214C142.987 83.2138 140.392 85.5501 137.054 87.33C133.791 89.11 129.971 90 125.596 90C120.552 90 115.954 88.7021 111.801 86.1063C107.648 83.4363 104.347 79.691 101.9 74.8702C99.5265 69.9753 98.3398 64.3387 98.3398 57.9605ZM144.842 58.0718C144.842 53.3252 143.507 49.5798 140.837 46.8357C138.241 44.0916 135.052 42.7195 131.269 42.7195C127.487 42.7195 124.261 44.0916 121.591 46.8357C118.995 49.5057 117.697 53.2139 117.697 57.9605C117.697 62.7071 118.995 66.4895 121.591 69.3078C124.261 72.0519 127.487 73.424 131.269 73.424C135.052 73.424 138.241 72.0519 140.837 69.3078C143.507 66.5637 144.842 62.8183 144.842 58.0718Z" fill="#161616"/>
<path d="M88.4423 11.0117V89.1079H69.4188V42.2724L51.9529 89.1079H36.6006L19.0234 42.1612V89.1079H0V11.0117H22.4721L44.388 65.0783L66.0814 11.0117H88.4423Z" fill="#161616"/>
<defs>
<linearGradient id="paint0_linear_1121_795" x1="383.781" y1="73.9537" x2="415.001" y2="77.2773" gradientUnits="userSpaceOnUse">
<stop stop-color="#6557FF"/>
<stop offset="0.453125" stop-color="#AA3FFF"/>
<stop offset="1" stop-color="#F8522E"/>
</linearGradient>
</defs>
</svg>
